The Help 2011 CAM XViD - IMAGiNE ******************************************

Ripper ...........: IMAGiNE IMDB Rating.......: 8.0/10
Video Codec.......: XViD Release Date......: 14/08/11
Audio Codec.......: MP3 Theatre Date......: 10/08/11
Audio Bitrate.....: 128 Runtime...........: 2h 18mn
Subtitles.........: NIL Language..........: ENGLISH
Resolution........: 640 x 336 MDb URL..........: http://www.imdb.com/title/tt1454029

DETAILS:

Video
ID : 0
Format : MPEG-4 Visual
Format profile : Advanced Simple@L5
Format settings, BVOP : 2
Format settings, QPel : No
Format settings, GMC : No warppoints
Format settings, Matrix : Default (MPEG)
Muxing mode : Packed bitstream
Codec ID : XVID
Codec ID/Hint : XviD
Duration : 2h 18mn
Bit rate : 1 968 Kbps
Width : 640 pixels
Height : 336 pixels
Display aspect ratio : 1.905
Frame rate : 29.970 fps
Color space : YUV
Chroma subsampling : 4:2:0
Bit depth : 8 bits
Scan type : Progressive
Compression mode : Lossy
Bits/(Pixel*Frame) : 0.305
Stream size : 1.91 GiB (93%)
Writing library : XviD 64

Audio
ID : 1
Format : MPEG Audio
Format version : Version 1
Format profile : Layer 3
Mode : Joint stereo
Mode extension : MS Stereo
Codec ID : 55
Codec ID/Hint : MP3
Duration : 2h 18mn
Bit rate mode : Constant
Bit rate : 128 Kbps
Channel(s) : 2 channels
Sampling rate : 48.0 KHz
Compression mode : Lossy
Stream size : 127 MiB (6%)
Alignment : Split accross interleaves
Interleave, duration : 33 ms (1.00 video frame)
Writing library : LAME3.98r
Encoding settings : -m j -V 4 -q 2 -lowpass 17 -b 128

SOURCES:
VIDEO: ............... The Help 2011 CAM XviD ERDNA Thanks :D
AUDIO: ............... Thanks Matey :P

NOTES:

Here we are with a CAM release of The Help for you to enjoy. :)

Thanks again to ERDNA for the source. We have done our normal things of adjusting the gamma,
brightness, croma, and rgb colors a bit. Has a slight flicker, bot a bad cam...

Audio is nice cam audio and will do until line audio comes along.Enjoy!

SCREENS:


